<?xml version="1.0" encoding="UTF-8"?>
<svg xmlns="http://www.w3.org/2000/svg" version="1.1" width="100" height="100" viewBox="0 0 100 100"><rect x="0" y="0" width="100" height="100" fill="#ffffff"/><g transform="scale(4)"><g transform="translate(0,0)"><path fill-rule="evenodd" d="M8 0L8 4L10 4L10 3L11 3L11 4L12 4L12 2L11 2L11 0ZM12 0L12 1L13 1L13 2L14 2L14 3L13 3L13 5L11 5L11 6L10 6L10 7L9 7L9 5L8 5L8 7L9 7L9 8L10 8L10 7L11 7L11 6L12 6L12 8L11 8L11 9L9 9L9 10L6 10L6 9L7 9L7 8L4 8L4 9L5 9L5 11L4 11L4 10L2 10L2 11L1 11L1 9L2 9L2 8L0 8L0 14L2 14L2 16L0 16L0 17L2 17L2 16L4 16L4 17L8 17L8 18L9 18L9 19L8 19L8 21L9 21L9 23L8 23L8 25L13 25L13 23L12 23L12 21L13 21L13 22L14 22L14 24L15 24L15 22L16 22L16 23L18 23L18 24L19 24L19 25L20 25L20 24L19 24L19 22L20 22L20 21L21 21L21 25L25 25L25 24L24 24L24 22L25 22L25 21L23 21L23 19L24 19L24 20L25 20L25 19L24 19L24 17L25 17L25 16L24 16L24 17L23 17L23 15L24 15L24 13L23 13L23 11L24 11L24 9L25 9L25 8L21 8L21 9L20 9L20 8L19 8L19 11L20 11L20 10L21 10L21 12L22 12L22 13L19 13L19 12L18 12L18 9L17 9L17 6L16 6L16 7L15 7L15 5L17 5L17 3L16 3L16 2L17 2L17 0L14 0L14 1L13 1L13 0ZM14 1L14 2L16 2L16 1ZM9 2L9 3L10 3L10 2ZM14 3L14 4L15 4L15 3ZM13 6L13 9L14 9L14 10L12 10L12 9L11 9L11 10L9 10L9 13L6 13L6 12L7 12L7 11L6 11L6 12L5 12L5 13L4 13L4 12L2 12L2 13L4 13L4 16L7 16L7 15L8 15L8 14L11 14L11 13L10 13L10 11L11 11L11 12L12 12L12 11L13 11L13 13L12 13L12 14L13 14L13 15L12 15L12 16L10 16L10 15L9 15L9 18L11 18L11 17L12 17L12 19L13 19L13 21L14 21L14 22L15 22L15 21L16 21L16 20L14 20L14 19L16 19L16 18L15 18L15 16L14 16L14 15L15 15L15 14L13 14L13 13L18 13L18 15L17 15L17 14L16 14L16 15L17 15L17 16L19 16L19 15L20 15L20 14L19 14L19 13L18 13L18 12L15 12L15 9L16 9L16 8L15 8L15 7L14 7L14 6ZM21 9L21 10L22 10L22 11L23 11L23 9ZM11 10L11 11L12 11L12 10ZM16 10L16 11L17 11L17 10ZM5 14L5 15L7 15L7 14ZM22 14L22 15L23 15L23 14ZM12 16L12 17L13 17L13 19L14 19L14 17L13 17L13 16ZM17 17L17 20L20 20L20 17ZM21 17L21 19L22 19L22 18L23 18L23 17ZM18 18L18 19L19 19L19 18ZM9 19L9 20L10 20L10 24L12 24L12 23L11 23L11 21L12 21L12 20L10 20L10 19ZM17 21L17 22L18 22L18 21ZM22 21L22 23L23 23L23 21ZM0 0L0 7L7 7L7 0ZM1 1L1 6L6 6L6 1ZM2 2L2 5L5 5L5 2ZM18 0L18 7L25 7L25 0ZM19 1L19 6L24 6L24 1ZM20 2L20 5L23 5L23 2ZM0 18L0 25L7 25L7 18ZM1 19L1 24L6 24L6 19ZM2 20L2 23L5 23L5 20Z" fill="#000000"/></g></g></svg>
